<?xml version="1.0" standalone="yes"?>
<svg xmlns="http://www.w3.org/2000/svg" width="1080" height="1080">
<path style="fill:none; stroke:none;" d="M0 0L0 609C11.502 600.898 21.5189 589.602 32 580.169C58.6142 556.216 84.8305 531.764 112 508.424C124.336 497.827 150.214 483.417 154.32 467C159.849 444.896 156.299 419.377 154.17 397C152.149 375.765 152.854 354.263 150.83 333C148.593 309.495 146.496 276.417 164.04 258C185.094 235.898 214.613 242 242 242C278.897 242 337.933 227.618 351.572 276C354.425 286.123 354 296.598 354 307C395.765 280.991 434.739 245.879 472 213.87C489.095 199.184 515.075 174.571 539 174.015C556.331 173.611 572.228 186.819 586 196C622.4 220.267 655.341 249.959 688 278.95C777.576 358.464 872.966 431.813 964 509.729C990.416 532.339 1016.9 554.871 1043 577.845C1054.82 588.253 1069.89 598.065 1079 611L1080 611L1080 0L268 0L268 1C278.257 2.63574 272.64 11.0795 266 13.3325C256.781 16.4604 247.926 20.1321 239 24C233.263 26.486 228.067 29.7769 223 33.4282C188.994 57.9334 230.677 99.02 238.572 127C244.427 147.751 239.857 168.147 222.985 182.385C218.707 185.995 212.997 191.371 207 191.342C194.346 191.281 185.653 170.58 189.742 160.004C191.847 154.56 198.48 152.525 200.382 146.999C201.697 143.18 199.603 138.564 198.305 135C186.611 102.892 158.373 71.9907 176.37 36C179.294 30.1541 183.388 25.5671 188 21.0039C193.607 15.4563 199.769 11.059 207 7.86194C215.617 4.05225 225.573 1.40491 235 1L213 0L166 0L0 0z"/>
<path style="fill:#0d9501; stroke:none;" d="M235 0L236 1L235 0z"/>
<path style="fill:#F0CC99; stroke:none;" d="M236 0.425171C225.64 1.83545 215.648 3.86328 206 8.00073C199.202 10.9158 193.298 14.8461 188 20.0146C152.054 55.0802 181.576 96.6858 197.127 133C198.646 136.547 201.435 142.075 200.303 146C198.685 151.613 191.841 153.656 189.742 159.015C185.174 170.68 194.162 193.715 209 191.38C216.845 190.146 224.147 182.663 229.13 176.985C253.898 148.767 234.734 115.958 220.753 88C215.87 78.2357 208.301 66.4399 209.225 55C210.927 33.9087 239.512 23.676 256 17.2029C260.494 15.4384 269.995 14.2712 272.972 10.2979C281.7 -1.34827 256.792 0 252 0C246.682 0 241.28 -0.293457 236 0.425171z"/>
<path style="fill:#0d9501; stroke:none;" d="M207 7L208 8L207 7M171 50L172 51L171 50z"/>
<path style="fill:#F0CC99; stroke:none;" d="M275 78C289.064 63.4714 258.501 58.7308 255.759 77C251.83 103.182 282.464 112.151 290.438 132C292.435 136.971 287.857 142.249 285.115 146C276.508 157.774 260.442 175.946 281 184.768C284.201 186.141 287.544 187.326 291 187.83C295.12 188.431 300.897 189.998 304.907 188.397C310.889 186.008 316.148 175.098 319.848 170C335.91 147.872 338.86 120.021 317.675 100.12C312.216 94.9919 304.538 91.8983 298 88.3742C290.865 84.528 283.243 78.4457 275 78z"/>
<path style="fill:#0d9501; stroke:none;" d="M255 77L256 78L255 77z"/>
<path style="fill:#0eb301; stroke:none;" d="M255 80L256 81L255 80z"/>
<path style="fill:#0d9501; stroke:none;" d="M173 81L174 82L173 81M255 81L256 82L255 81M288 83L289 84L288 83z"/>
<path style="fill:#0eb301; stroke:none;" d="M299 89L300 90L299 89M303 91L304 92L303 91M319 102L320 103L319 102z"/>
<path style="fill:#01ff01; stroke:none;" d="M185 109L186 110L185 109z"/>
<path style="fill:#0d9501; stroke:none;" d="M235 117L236 118L235 117z"/>
<path style="fill:#0eb301; stroke:none;" d="M240 155L241 156L240 155z"/>
<path style="fill:#F0CC99; stroke:none;" d="M354 307C354 296.278 354.514 285.437 351.572 275C338.043 227.008 277.541 242 241 242C217.461 242 187.392 235.589 168 253.105C149.777 269.565 150 294.254 150 317C150 363.574 162.198 412.745 155.572 459C153.205 475.523 140.925 482.883 129 493.13C108.798 510.492 88.6084 527.882 69 545.914C50.8137 562.639 32.5327 579.376 14 595.714C10.0298 599.215 -3.22779 608.095 1.03241 614.681C4.3707 619.843 11.7603 613.821 15 611.667C27.4676 603.376 39.8032 594.826 52 586.141C83.8248 563.48 116.525 542.045 148 518.884C167.068 504.853 185.164 492.532 190.576 468C200.02 425.191 193.052 377.427 191.985 334C191.694 322.151 190.615 310.885 191.95 299C192.476 294.312 192.315 287.939 196.228 284.653C207.169 275.464 234.081 283.29 247.424 282.822C263.43 282.26 280.025 278.452 296 280.576C301.461 281.301 308.626 280.619 311.86 286.059C317.545 295.62 313.983 314.205 314 325C314.006 328.849 315.558 334.459 313.357 337.829C305.531 349.818 289.157 357.331 280.015 369C274.533 375.996 261.99 395.91 277.004 400.276C298.188 406.437 323.08 382.899 338 371.349C385.665 334.454 433.761 297.747 480 259.08C494.483 246.969 508.346 233.982 524 223.344C528.279 220.436 536.49 213.067 542 214.552C556.28 218.403 572.353 234.053 584 242.87C616.463 267.448 646.926 294.449 678 320.725C711.724 349.243 747.898 375.104 783 401.884C838.57 444.28 894.331 486.507 951 527.424C981.028 549.106 1010.87 571.038 1041 592.579C1051.81 600.307 1066.3 615.678 1080 616C1079.29 602.998 1061.01 592.777 1052 584.845C1023.26 559.546 993.758 535.116 965 509.845C868.249 424.827 766.526 345.67 669 261.576C641.54 237.899 614.219 214.146 584 194C572.291 186.194 557.641 174.396 543 174.015C518.829 173.385 496.848 193.117 479 207.4C437.649 240.492 394.001 272.386 354 307z"/>
<path style="fill:#0d9501; stroke:none;" d="M551 175L552 176L551 175M227 178L228 179L227 178z"/>
<path style="fill:#0eb301; stroke:none;" d="M511 184L512 185L511 184M568 184L569 185L568 184M308 185L309 186L308 185z"/>
<path style="fill:#0d9501; stroke:none;" d="M205 191L206 192L205 191z"/>
<path style="fill:#0eb301; stroke:none;" d="M497 193L498 194L497 193M485 202L486 203L485 202M480 206L481 207L480 206M605 209L606 210L605 209z"/>
<path style="fill:#01ff01; stroke:none;" d="M475 210L476 211L475 210z"/>
<path style="fill:none; stroke:none;" d="M0 615L0 1080L398 1080L398 1079C381.411 1072.58 377.007 1055.51 373.105 1040C367.104 1016.14 359.108 992.894 353.127 969C336.099 900.977 316.092 833.731 298.014 766C292.111 743.885 289.003 721.002 282.576 699C274.903 672.736 268.262 646.25 260.576 620C257.438 609.284 250.464 597.5 253.789 586C256.965 575.015 267.265 574.096 277 573.17C297.387 571.23 334.081 569.047 349.96 584.105C361.203 594.768 362.93 613.756 367 628C377.823 665.875 385.665 704.825 395.478 743C407.823 791.019 420.962 838.365 431 887L432 887C443.083 838.538 457.987 791.385 469.113 743C478.011 704.302 487.551 665.887 499.656 628C503.454 616.111 505.052 603.37 510.309 592C521.855 567.031 545.578 574 568 574C581.295 574 595.813 573.002 605.471 584.174C612.362 592.146 614.394 605.058 616.895 615C621.52 633.385 627.146 651.374 631.003 670C640.658 716.631 657.318 761.557 667.576 808C670.901 823.057 675.833 837.818 678.576 853C680.439 863.315 680.453 876.918 686 886C692.25 869.434 693.625 851.026 698.428 834C708.544 798.148 719.779 762.767 726.424 726C732.758 690.959 744.454 654.794 755.667 621C760.359 606.858 763.123 590.402 775.004 580.213C788.22 568.878 810.211 574.921 826 574.921C834.317 574.921 842.613 573.137 851 574.185C857.953 575.054 864.282 579.234 866.532 586.001C869.92 596.193 864.654 606.291 861.859 616C855.54 637.943 847.951 659.685 843.014 682C833.921 723.097 821.538 763.552 810.425 804C804.878 824.188 801.474 844.834 795.576 865C785.349 899.963 773.496 934.356 765.79 970C762.8 983.832 758.337 997.295 754.895 1011C748.944 1034.7 748.491 1070.78 720 1079L720 1080L1080 1080L1080 616C1067.93 615.372 1055.55 602.249 1046 595.421C1019.58 576.535 993.328 557.434 967 538.424C865.234 464.946 761.576 391.007 666 309.579C637.157 285.005 608.441 260.233 578 237.63C568.924 230.89 552.436 215.143 541 213.924C535.825 213.372 529.078 219.302 525 222.004C511.122 231.198 498.592 242.293 486 253.13C439.559 293.101 389.867 329.182 342 367.4C327.028 379.353 311.683 393.057 293 398.795C285.954 400.959 275.397 403.142 271.18 394.981C265.063 383.142 282.777 366.152 290 359.004C296.661 352.411 309.609 346.06 313.958 337.829C315.795 334.351 314.019 328.817 314.001 325C313.949 314.302 317.82 294.454 311.86 285.147C307.862 278.902 292.549 279.926 286 280.004C264.544 280.258 243.49 282.253 222 281.996C214.016 281.901 203.375 278.795 196.228 284.009C192.239 286.92 192.391 293.53 192 298C190.997 309.456 190.739 320.536 191.83 332C193.287 347.31 192.367 362.653 193.039 378C194.168 403.779 196.551 431.377 192.576 457C187.271 491.19 164.38 506.379 138 525.424C116.564 540.901 94.9339 556.234 73 571C55.8616 582.538 38.9353 594.446 22 606.28C15.5079 610.816 8.18768 618.272 0 615z"/>
<path style="fill:#0d9501; stroke:none;" d="M541 213L542 214L541 213z"/>
<path style="fill:#0eb301; stroke:none;" d="M552 220L553 221L552 220M462 221L463 222L462 221z"/>
<path style="fill:#0d9501; stroke:none;" d="M623 223L624 224L623 223z"/>
<path style="fill:#0eb301; stroke:none;" d="M564 228L565 229L564 228M577 237L578 238L577 237M442 238L443 239L442 238M266 240L267 241L266 240M187 243L188 244L187 243M432 246L433 247L432 246M489 250L490 251L489 250z"/>
<path style="fill:#0d9501; stroke:none;" d="M594 250L595 251L594 250M599 254L600 255L599 254M419 256L420 257L419 256z"/>
<path style="fill:#0eb301; stroke:none;" d="M604 258L605 259L604 258z"/>
<path style="fill:#0d9501; stroke:none;" d="M475 262L476 263L475 262z"/>
<path style="fill:#0eb301; stroke:none;" d="M157 266L158 267L157 266M156 268L157 269L156 268M155 270L156 271L155 270z"/>
<path style="fill:#F0CC99; stroke:none;" d="M536 276.432C515.206 279.164 501.304 292.484 486 305.572C470.446 318.874 454.215 331.631 438 344.119C358.372 405.443 279.531 468.308 202 532.25C177.754 552.246 149.001 569.186 128.289 593C120.043 602.482 110.237 621.491 129 623.713C141.468 625.19 155.679 618.512 166 612.189C187.607 598.953 207.378 582.219 227 566.261C301.087 506.008 375.712 446.326 451 387.576C472.355 370.911 495.372 354.628 515 335.961C520.978 330.277 532.645 316.051 542 317.36C552.068 318.768 562.716 331.392 570 337.718C588 353.352 607.622 367.418 627 381.29C704.588 436.832 782.372 492.108 860 547.579C885.779 566 911.718 584.306 938 602C943.296 605.566 957.892 619.737 964.682 617.292C968.056 616.077 966.649 611.198 965.258 609.039C961.331 602.947 953.523 598.183 948 593.586C923.038 572.811 898.116 552.01 873 531.424C792.157 465.162 711.346 398.234 628 335.13C616.737 326.602 605.486 318.318 595 308.83C578.999 294.352 560.114 273.264 536 276.432z"/>
<path style="fill:#0d9501; stroke:none;" d="M529 277L530 278L529 277M560 281L561 282L560 281M232 282L233 283L232 282z"/>
<path style="fill:#0eb301; stroke:none;" d="M246 282L247 283L246 282z"/>
<path style="fill:#01ff01; stroke:none;" d="M251 282L252 283L251 282M382 285L383 286L382 285z"/>
<path style="fill:#0d9501; stroke:none;" d="M699 288L700 289L699 288M505 289L506 290L505 289M150 294L151 295L150 294M434 295L435 296L434 295z"/>
<path style="fill:#0eb301; stroke:none;" d="M191 302L192 303L191 302M425 302L426 303L425 302M480 310L481 311L480 310z"/>
<path style="fill:#0d9501; stroke:none;" d="M596 310L597 311L596 310z"/>
<path style="fill:#0eb301; stroke:none;" d="M730 314L731 315L730 314z"/>
<path style="fill:#0d9501; stroke:none;" d="M532 320L533 321L532 320M741 323L742 324L741 323M521 329L522 330L521 329M389 330L390 331L389 330M752 332L753 333L752 332M375 341L376 342L375 341M763 341L764 342L763 341z"/>
<path style="fill:#0eb301; stroke:none;" d="M440 342L441 343L440 342M151 343L152 344L151 343M709 345L710 346L709 345M366 348L367 349L366 348z"/>
<path style="fill:#0d9501; stroke:none;" d="M499 348L500 349L499 348z"/>
<path style="fill:#0eb301; stroke:none;" d="M713 348L714 349L713 348M645 349L646 350L645 349z"/>
<path style="fill:#0d9501; stroke:none;" d="M774 350L775 351L774 350z"/>
<path style="fill:#01ff01; stroke:none;" d="M587 351L588 352L587 351z"/>
<path style="fill:#0eb301; stroke:none;" d="M717 351L718 352L717 351M494 352L495 353L494 352M591 354L592 355L591 354z"/>
<path style="fill:#0d9501; stroke:none;" d="M489 356L490 357L489 356z"/>
<path style="fill:#0eb301; stroke:none;" d="M726 358L727 359L726 358z"/>
<path style="fill:#01ff01; stroke:none;" d="M152 359L153 360L152 359z"/>
<path style="fill:#0d9501; stroke:none;" d="M785 359L786 360L785 359z"/>
<path style="fill:#0eb301; stroke:none;" d="M416 361L417 362L416 361M730 361L731 362L730 361z"/>
<path style="fill:#0d9501; stroke:none;" d="M479 364L480 365L479 364M604 364L605 365L604 364z"/>
<path style="fill:#0eb301; stroke:none;" d="M734 364L735 365L734 364M791 364L792 365L791 364z"/>
<path style="fill:#0d9501; stroke:none;" d="M474 368L475 369L474 368z"/>
<path style="fill:#0eb301; stroke:none;" d="M743 371L744 372L743 371z"/>
<path style="fill:#01ff01; stroke:none;" d="M469 372L470 373L469 372z"/>
<path style="fill:#0d9501; stroke:none;" d="M802 373L803 374L802 373z"/>
<path style="fill:#0eb301; stroke:none;" d="M747 374L748 375L747 374M619 375L620 376L619 375M751 377L752 378L751 377M392 380L393 381L392 380z"/>
<path style="fill:#01ff01; stroke:none;" d="M324 381L325 382L324 381z"/>
<path style="fill:#0d9501; stroke:none;" d="M193 382L194 383L193 382z"/>
<path style="fill:#0eb301; stroke:none;" d="M193 383L194 384L193 383M814 383L815 384L814 383M760 384L761 385L760 384z"/>
<path style="fill:#01ff01; stroke:none;" d="M692 386L693 387L692 386z"/>
<path style="fill:#0eb301; stroke:none;" d="M764 387L765 388L764 387M637 388L638 389L637 388M768 390L769 391L768 390M445 391L446 392L445 391z"/>
<path style="fill:#0d9501; stroke:none;" d="M825 392L826 393L825 392M154 399L155 400L154 399M368 399L369 400L368 399z"/>
<path style="fill:#01ff01; stroke:none;" d="M781 400L782 401L781 400z"/>
<path style="fill:#0eb301; stroke:none;" d="M837 402L838 403L837 402z"/>
<path style="fill:#0d9501; stroke:none;" d="M785 403L786 404L785 403z"/>
<path style="fill:#01ff01; stroke:none;" d="M155 413L156 414L155 413z"/>
<path style="fill:#0d9501; stroke:none;" d="M344 418L345 419L344 418M810 422L811 423L810 422M392 433L393 434L392 433z"/>
<path style="fill:#0eb301; stroke:none;" d="M156 434L157 435L156 434z"/>
<path style="fill:#01ff01; stroke:none;" d="M755 436L756 437L755 436z"/>
<path style="fill:#0d9501; stroke:none;" d="M320 437L321 438L320 437z"/>
<path style="fill:#0eb301; stroke:none;" d="M760 440L761 441L760 440z"/>
<path style="fill:#01ff01; stroke:none;" d="M710 441L711 442L710 441z"/>
<path style="fill:#0eb301; stroke:none;" d="M765 444L766 445L765 444M717 446L718 447L717 446M193 450L194 451L193 450M724 451L725 452L724 451z"/>
<path style="fill:#0d9501; stroke:none;" d="M368 452L369 453L368 452M296 456L297 457L296 456z"/>
<path style="fill:#0eb301; stroke:none;" d="M192 457L193 458L192 457M291 460L292 461L291 460z"/>
<path style="fill:#0d9501; stroke:none;" d="M191 463L192 464L191 463z"/>
<path style="fill:#0eb301; stroke:none;" d="M349 467L350 468L349 467M919 471L920 472L919 471M271 476L272 477L271 476M882 476L883 477L882 476z"/>
<path style="fill:#0d9501; stroke:none;" d="M185 482L186 483L185 482z"/>
<path style="fill:#0eb301; stroke:none;" d="M330 482L331 483L330 482M138 485L139 486L138 485z"/>
<path style="fill:#01ff01; stroke:none;" d="M773 486L774 487L773 486z"/>
<path style="fill:#0d9501; stroke:none;" d="M945 493L946 494L945 493M828 495L829 496L828 495z"/>
<path style="fill:#0eb301; stroke:none;" d="M310 498L311 499L310 498z"/>
<path style="fill:#0d9501; stroke:none;" d="M913 499L914 500L913 499z"/>
<path style="fill:#0eb301; stroke:none;" d="M952 499L953 500L952 499M839 504L840 505L839 504M164 506L165 507L164 506M966 511L967 512L966 511z"/>
<path style="fill:#0d9501; stroke:none;" d="M103 515L104 516L103 515z"/>
<path style="fill:#01ff01; stroke:none;" d="M223 515L224 516L223 515M936 516L937 517L936 516z"/>
<path style="fill:#0d9501; stroke:none;" d="M149 517L150 518L149 517z"/>
<path style="fill:#0eb301; stroke:none;" d="M817 517L818 518L817 517z"/>
<path style="fill:#0d9501; stroke:none;" d="M855 517L856 518L855 517z"/>
<path style="fill:#0eb301; stroke:none;" d="M218 519L219 520L218 519M820 519L821 520L820 519z"/>
<path style="fill:#0d9501; stroke:none;" d="M94 523L95 524L94 523z"/>
<path style="fill:#0eb301; stroke:none;" d="M866 526L867 527L866 526M135 527L136 528L135 527M951 527L952 528L951 527M131 530L132 531L131 530M85 531L86 532L85 531M198 535L199 536L198 535z"/>
<path style="fill:#0d9501; stroke:none;" d="M877 535L878 536L877 535z"/>
<path style="fill:#0eb301; stroke:none;" d="M962 535L963 536L962 535z"/>
<path style="fill:#01ff01; stroke:none;" d="M76 539L77 540L76 539z"/>
<path style="fill:#0eb301; stroke:none;" d="M854 543L855 544L854 543M973 543L974 544L973 543z"/>
<path style="fill:#0d9501; stroke:none;" d="M111 544L112 545L111 544z"/>
<path style="fill:#0eb301; stroke:none;" d="M857 545L858 546L857 545z"/>
<path style="fill:#0d9501; stroke:none;" d="M247 549L248 550L247 549z"/>
<path style="fill:#0eb301; stroke:none;" d="M894 549L895 550L894 549z"/>
<path style="fill:#0d9501; stroke:none;" d="M864 550L865 551L864 550z"/>
<path style="fill:#0eb301; stroke:none;" d="M101 551L102 552L101 551M984 551L985 552L984 551z"/>
<path style="fill:#0d9501; stroke:none;" d="M899 553L900 554L899 553z"/>
<path style="fill:#0eb301; stroke:none;" d="M55 558L56 559L55 558z"/>
<path style="fill:#01ff01; stroke:none;" d="M91 558L92 559L91 558z"/>
<path style="fill:#0eb301; stroke:none;" d="M995 559L996 560L995 559M1022 559L1023 560L1022 559M227 565L228 566L227 565M1006 567L1007 568L1006 567z"/>
<path style="fill:#0d9501; stroke:none;" d="M149 573L150 574L149 573z"/>
<path style="fill:#F0CC99; stroke:none;" d="M559 794L560 794C561.646 805.185 566.382 816.023 569.127 827C577.749 861.491 587.901 895.555 596.626 930C605.554 965.25 614.802 1000.21 625.28 1035C630.066 1050.89 632.548 1068.39 648 1077.66C658.458 1083.93 679.068 1080 691 1080C706.683 1080 723.465 1082.67 735.671 1070.54C747.947 1058.33 750.497 1035.2 753.424 1019C757.708 995.299 765.275 971.217 771.745 948C796.393 859.555 822.069 771.431 843.236 682C847.593 663.593 852.804 644.995 858.67 627C862.098 616.481 867.935 604.185 867.921 593C867.911 584.667 864.039 577.869 856 575.108C847.129 572.061 836.122 574.322 827 574.791C809.56 575.687 785.945 567.819 772.093 582.043C760.332 594.121 756.997 615.344 752.28 631C741.214 667.733 731.95 704.726 723.116 742C711.717 790.096 699.412 838.385 686 886C681.155 874.74 680.535 861.925 678.196 850C675.232 834.884 670.672 819.986 667.116 805C656.523 760.365 641.769 716.785 631.651 672C627.239 652.474 621.767 633.367 616.895 614C614.37 603.96 612.341 590.013 604.671 582.468C592.176 570.174 573.621 574.98 558 573.911C548.145 573.236 536.638 571.139 527 574.224C520.424 576.328 515.699 581.107 512.338 587C505.892 598.301 504.187 611.668 500.576 624C494.137 645.99 487.905 667.899 481.848 690C471.861 726.442 464.743 763.509 455.116 800C447.473 828.968 436.393 857.118 432 887C426.803 874.92 426.15 860.829 423.739 848C421.1 833.957 416.594 819.888 413.127 806C401.956 761.261 386.712 717.271 377.6 672C373.525 651.749 367.905 632.014 362.895 612C360.212 601.283 357.47 588.504 347.996 581.637C330.853 569.213 296.231 571.245 276 573.17C266.39 574.084 256.111 574.837 253.529 586C249.903 601.68 260.554 621.344 265.33 636C275.041 665.799 282.337 697.447 289.349 728C305.689 799.203 326.539 869.345 345.116 940C352.878 969.524 360.482 998.794 369.28 1028C372.82 1039.75 374.668 1053.07 380.402 1064C383.695 1070.28 390.161 1076.84 397 1079.15C403.832 1081.45 412.862 1080 420 1080C438.877 1080 464.353 1084.93 479.907 1072.1C490.831 1063.09 494.266 1044.19 496.997 1031C503.695 998.66 512.728 966.822 521.576 935C534.608 888.128 546.437 840.997 559 794z"/>
<path style="fill:#0d9501; stroke:none;" d="M904 578L905 579L904 578M929 578L930 579L929 578z"/>
<path style="fill:#0eb301; stroke:none;" d="M207 581L208 582L207 581M52 585L53 586L52 585z"/>
<path style="fill:#01ff01; stroke:none;" d="M198 588L199 589L198 588z"/>
<path style="fill:#0eb301; stroke:none;" d="M920 589L921 590L920 589z"/>
<path style="fill:#0d9501; stroke:none;" d="M1061 593L1062 594L1061 593z"/>
<path style="fill:#0eb301; stroke:none;" d="M960 604L961 605L960 604z"/>
<path style="fill:#0d9501; stroke:none;" d="M148 620L149 621L148 620M141 622L142 623L141 622M126 623L127 624L126 623z"/>
<path style="fill:#0eb301; stroke:none;" d="M127 623L128 624L127 623M136 623L137 624L136 623z"/>
<path style="fill:none; stroke:none;" d="M559 794C551.188 814.953 549.213 837.524 543.255 859C529.289 909.336 515.417 959.76 501.039 1010C494.559 1032.64 494.913 1073.66 465 1079L465 1080L652 1080L652 1079C627.715 1068.72 623.209 1028.65 616.576 1006C602.359 957.452 590.526 907.847 577.152 859C571.648 838.899 570.18 811.79 559 794z"/>
</svg>
